<svg width="368" height="365" viewBox="0 0 368 365" fill="none" xmlns="http://www.w3.org/2000/svg">
<mask id="mask0_59_292" style="mask-type:luminance" maskUnits="userSpaceOnUse" x="34" y="54" width="300" height="290">
<path d="M334 54H34V269.439H87.76C99.274 312.143 137.995 343.551 184 343.551C230.005 343.551 268.726 312.143 280.24 269.439H334V54Z" fill="white"/>
</mask>
<g mask="url(#mask0_59_292)">
<path d="M184 342.709C239.081 342.709 283.733 298.068 283.733 243.001C283.733 187.934 239.081 143.293 184 143.293C128.919 143.293 84.2673 187.934 84.2673 243.001C84.2673 298.068 128.919 342.709 184 342.709Z" fill="#85C5E5"/>
<path d="M101.605 203.363C156.631 226.742 212.947 227.075 268.387 203.363C273.646 201.113 273.616 161.412 268.387 163.23C214.246 182.074 156.988 182.275 101.605 163.23C95.0169 160.953 95.6589 200.822 101.605 203.363Z" fill="#592D3D" stroke="#592D3D" stroke-width="12" stroke-miterlimit="10"/>
<path d="M217 281.56C244.228 281.56 238.6 315.823 238.861 353.926H217V281.56Z" fill="#FDD2B2"/>
<path d="M223.822 303.499L217 314.935L220.414 353.926H229.942C230.173 299.858 223.822 303.499 223.822 303.499Z" fill="#F3AB98"/>
<path d="M103.975 203.963C103.975 159.778 139.804 123.958 184 123.958C228.196 123.958 264.025 159.778 264.025 203.963C264.036 215.868 261.385 227.625 256.264 238.374C251.143 249.122 243.683 258.59 234.43 266.083C232.788 267.419 231.094 268.688 229.348 269.889C211.3 281.343 188.5 281.343 167.917 279.511C165.919 279.211 163.927 278.833 161.95 278.398C154.051 276.659 146.404 273.974 139.339 270.06C137.593 268.984 135.9 267.823 134.26 266.575C132.612 265.32 131.029 263.981 129.52 262.562C128.092 261.236 126.713 259.859 125.383 258.429C111.6 243.642 103.948 224.175 103.975 203.963Z" fill="#FDD2B2"/>
<path d="M114.883 244.297C115.093 244.657 115.3 245.017 115.516 245.37C115.645 245.586 115.78 245.796 115.915 246.012C116.113 246.333 116.311 246.654 116.515 246.969C116.659 247.197 116.815 247.419 116.953 247.641C117.151 247.941 117.349 248.241 117.553 248.541C117.706 248.769 117.853 248.997 118.021 249.225C118.219 249.524 118.417 249.8 118.621 250.088C118.783 250.319 118.951 250.547 119.116 250.778C119.281 251.009 119.518 251.333 119.716 251.609C119.914 251.885 120.061 252.068 120.235 252.296C120.409 252.524 120.646 252.836 120.856 253.106C121.066 253.375 121.213 253.558 121.393 253.783C121.573 254.008 121.816 254.311 122.029 254.572C122.242 254.833 122.398 255.019 122.584 255.241C122.77 255.463 123.016 255.757 123.235 256.012C123.454 256.267 123.616 256.453 123.808 256.672L124.474 257.421C124.669 257.64 124.867 257.853 125.074 258.069C125.332 258.351 125.593 258.63 125.854 258.906L126.217 259.29C126.604 259.692 126.994 260.094 127.39 260.49L127.468 260.571C127.855 260.955 128.248 261.336 128.641 261.713L129.115 262.163C129.4 262.43 129.685 262.697 129.973 262.961L130.321 263.279C130.621 263.561 130.948 263.837 131.263 264.113C132.243 264.967 133.243 265.785 134.263 266.569C135.901 267.817 137.594 268.979 139.342 270.054C146.407 273.953 154.042 276.653 161.953 278.392C163.93 278.827 165.922 279.202 167.92 279.505C180.55 280.63 194.02 281.059 206.704 278.581C186.535 272.646 89.6769 237.776 150.64 131.225C149.824 131.6 149.02 131.987 148.222 132.389L148.045 132.476C147.679 132.658 147.313 132.847 146.95 133.039L146.65 133.198C145.522 133.798 144.406 134.419 143.311 135.067L143.041 135.226C142.693 135.433 142.348 135.643 142.003 135.856L141.742 136.018C140.67 136.687 139.615 137.38 138.577 138.096L138.253 138.321C137.926 138.549 137.605 138.777 137.284 139.008L137.086 139.149C136.432 139.627 135.786 140.111 135.148 140.601L134.962 140.744C134.662 140.978 134.362 141.218 134.062 141.461L133.711 141.743C133.411 141.986 133.111 142.229 132.811 142.478C132.178 143.003 131.554 143.543 130.939 144.089L130.597 144.389L129.79 145.123L129.4 145.477C128.544 146.277 127.707 147.094 126.889 147.928L126.475 148.351C126.238 148.597 126.001 148.842 125.767 149.091C125.629 149.238 125.491 149.391 125.356 149.535C124.944 149.975 124.538 150.421 124.138 150.873C124.003 151.026 123.865 151.173 123.73 151.335C123.517 151.578 123.307 151.824 123.097 152.07L122.644 152.607C122.44 152.849 122.236 153.092 122.044 153.338C121.882 153.536 121.72 153.737 121.561 153.938C121.24 154.337 120.925 154.736 120.613 155.138C120.451 155.348 120.289 155.558 120.13 155.771C119.971 155.984 119.77 156.248 119.593 156.491C119.416 156.734 119.272 156.925 119.116 157.144C118.96 157.363 118.777 157.609 118.612 157.843C118.328 158.243 118.048 158.648 117.772 159.058C117.622 159.277 117.472 159.502 117.325 159.724C117.178 159.946 116.995 160.222 116.833 160.474L116.386 161.166L115.882 161.979C115.753 162.186 115.624 162.393 115.498 162.6C115.231 163.038 114.973 163.479 114.715 163.92L114.349 164.568C114.187 164.852 114.025 165.14 113.866 165.428C113.746 165.647 113.626 165.866 113.509 166.085C113.317 166.442 113.128 166.802 112.939 167.162L112.579 167.864C112.387 168.248 112.195 168.629 112.006 169.015C111.907 169.222 111.805 169.432 111.706 169.642C111.55 169.969 111.406 170.299 111.247 170.629C111.154 170.827 111.064 171.025 110.974 171.229C110.752 171.723 110.535 172.223 110.323 172.729C110.257 172.884 110.194 173.043 110.128 173.199C109.969 173.58 109.813 173.961 109.66 174.345C109.579 174.546 109.501 174.747 109.423 174.945C109.273 175.323 109.123 175.704 108.988 176.085C108.925 176.25 108.862 176.415 108.802 176.58C108.614 177.105 108.429 177.631 108.247 178.157L108.079 178.667C107.947 179.067 107.818 179.467 107.692 179.867L107.512 180.44C107.371 180.902 107.233 181.363 107.101 181.828C107.071 181.927 107.041 182.026 107.014 182.128C106.858 182.68 106.708 183.234 106.564 183.79C106.516 183.967 106.474 184.147 106.429 184.324C106.324 184.741 106.222 185.157 106.129 185.577L106.003 186.102C105.874 186.672 105.748 187.242 105.631 187.815L105.586 188.046C105.484 188.556 105.384 189.065 105.286 189.575C105.253 189.758 105.223 189.938 105.19 190.121C105.112 190.568 105.037 191.021 104.968 191.471C104.944 191.624 104.917 191.771 104.896 191.927C104.806 192.512 104.725 193.099 104.647 193.69L104.602 194.08C104.542 194.557 104.488 195.037 104.437 195.517C104.419 195.697 104.398 195.877 104.38 196.06C104.332 196.564 104.287 197.07 104.245 197.577C104.245 197.682 104.227 197.784 104.221 197.877C104.177 198.477 104.138 199.082 104.104 199.692C104.104 199.851 104.104 200.013 104.083 200.172C104.063 200.644 104.045 201.114 104.029 201.584C104.029 201.761 104.029 201.938 104.029 202.115C104.029 202.73 104.005 203.348 104.005 203.966C104.005 203.966 104.005 203.987 104.005 203.996C104.005 204.662 104.005 205.321 104.029 205.981C104.029 206.209 104.047 206.437 104.053 206.665C104.068 207.106 104.083 207.547 104.104 207.988C104.104 208.255 104.137 208.519 104.152 208.786C104.176 209.184 104.197 209.583 104.227 209.985C104.248 210.285 104.275 210.552 104.299 210.834C104.332 211.212 104.362 211.59 104.401 211.965C104.428 212.265 104.464 212.547 104.494 212.838C104.536 213.2 104.575 213.566 104.62 213.929C104.656 214.229 104.698 214.529 104.737 214.814C104.785 215.168 104.833 215.525 104.887 215.879C104.932 216.179 104.98 216.479 105.028 216.779C105.082 217.127 105.139 217.477 105.199 217.825C105.253 218.125 105.307 218.425 105.364 218.725C105.427 219.07 105.493 219.415 105.559 219.757C105.625 220.099 105.682 220.357 105.745 220.657C105.817 220.999 105.889 221.337 105.967 221.676C106.045 222.015 106.099 222.276 106.171 222.555C106.249 222.894 106.333 223.23 106.417 223.563C106.501 223.896 106.564 224.148 106.639 224.436C106.729 224.772 106.819 225.105 106.912 225.437C106.99 225.737 107.071 226.013 107.155 226.298C107.251 226.631 107.35 226.961 107.455 227.291C107.56 227.621 107.629 227.858 107.719 228.143C107.809 228.428 107.929 228.8 108.037 229.127C108.145 229.453 108.223 229.687 108.319 229.966C108.433 230.293 108.547 230.62 108.664 230.947C108.763 231.22 108.859 231.496 108.964 231.769L109.336 232.75C109.441 233.017 109.543 233.286 109.636 233.553C109.768 233.88 109.903 234.21 110.038 234.537C110.146 234.795 110.251 235.056 110.362 235.314C110.503 235.65 110.662 235.98 110.797 236.313C110.908 236.559 111.016 236.808 111.127 237.054C111.283 237.401 111.448 237.743 111.607 238.085L111.931 238.775C112.114 239.153 112.303 239.525 112.492 239.9C112.588 240.089 112.678 240.281 112.777 240.47C113.353 241.591 113.953 242.698 114.577 243.79C114.664 243.931 114.775 244.114 114.883 244.297Z" fill="#F3AB98"/>
<path d="M103.975 203.963C103.975 159.778 139.804 123.958 184 123.958C228.196 123.958 264.025 159.778 264.025 203.963C264.036 215.868 261.385 227.625 256.264 238.374C251.143 249.122 243.683 258.59 234.43 266.083C232.788 267.419 231.094 268.688 229.348 269.889C211.3 281.343 188.5 281.343 167.917 279.511C165.919 279.211 163.927 278.833 161.95 278.398C154.051 276.659 146.404 273.974 139.339 270.06C137.593 268.984 135.9 267.823 134.26 266.575C132.612 265.32 131.029 263.981 129.52 262.562C128.092 261.236 126.713 259.859 125.383 258.429C111.6 243.642 103.948 224.175 103.975 203.963Z" stroke="#592D3D" stroke-width="12" stroke-miterlimit="10"/>
<path d="M149.836 281.56C122.605 281.56 128.236 315.823 127.975 353.926H149.836V281.56Z" fill="#FDD2B2"/>
<path d="M144.169 303.499L151 314.935L147.583 353.926H138.064C137.821 299.858 144.169 303.499 144.169 303.499Z" fill="#F3AB98"/>
<path d="M219.841 374.92H148.159C147.103 374.92 146.09 374.5 145.344 373.753C144.597 373.006 144.178 371.993 144.178 370.937V285.543C144.178 284.487 144.597 283.474 145.344 282.727C146.09 281.98 147.103 281.56 148.159 281.56H218.128C222.055 281.56 223.828 283.857 223.828 287.522V370.925C223.83 371.45 223.728 371.969 223.528 372.454C223.328 372.939 223.035 373.379 222.664 373.751C222.294 374.122 221.854 374.416 221.369 374.617C220.885 374.818 220.365 374.921 219.841 374.92Z" fill="#FDD2B2"/>
<path d="M222.715 283.929C222.416 283.561 222.163 283.158 221.962 282.729C221.242 282.165 220.385 281.802 219.478 281.676C219.031 281.607 218.58 281.573 218.128 281.574H148.159C147.105 281.575 146.095 281.993 145.349 282.737C144.603 283.48 144.182 284.489 144.178 285.543C152.878 288.668 169.165 290.413 184 290.413C202.918 290.413 215.314 287.609 222.715 283.929Z" fill="#F3AB98"/>
<path d="M217 281.56C244.228 281.56 238.6 315.823 238.861 353.926H223.822" stroke="#592D3D" stroke-width="12" stroke-miterlimit="10" stroke-linecap="square"/>
<path d="M149.836 281.56C122.605 281.56 128.236 315.823 127.975 353.926H142.996" stroke="#592D3D" stroke-width="12" stroke-miterlimit="10" stroke-linecap="square"/>
<path d="M148.159 281.59L218.128 281.56" stroke="#592D3D" stroke-width="12" stroke-miterlimit="10"/>
<path d="M148.159 374.92H183.145C150.4 374.92 152.872 305.583 144.178 305.583V370.925C144.176 371.449 144.278 371.968 144.478 372.452C144.677 372.937 144.97 373.377 145.34 373.748C145.709 374.119 146.149 374.414 146.633 374.615C147.116 374.816 147.635 374.92 148.159 374.92Z" fill="#F3AB98"/>
<path d="M142.378 312.191C142.321 311.09 142.345 309.99 142.393 308.892C142.441 307.794 142.534 306.687 142.651 305.593C142.711 305.041 142.771 304.492 142.846 303.94C142.921 303.388 142.993 302.839 143.101 302.287C143.314 301.145 143.676 300.036 144.178 298.988C144.68 300.036 145.042 301.145 145.255 302.287C145.363 302.839 145.441 303.388 145.51 303.94C145.579 304.492 145.645 305.041 145.705 305.593C145.819 306.693 145.909 307.794 145.96 308.892C146.011 309.99 146.035 311.093 145.978 312.191H142.378Z" fill="#592D3D"/>
<path d="M223.822 314.935V317.335C223.9 327.532 223.9 338.03 223.822 348.152C223.822 349.013 223.822 349.868 223.822 350.71V370.928C223.823 371.452 223.721 371.971 223.522 372.455C223.322 372.939 223.029 373.379 222.659 373.749C222.29 374.12 221.85 374.415 221.367 374.615C220.883 374.816 220.365 374.92 219.841 374.92H148.159C147.103 374.92 146.09 374.5 145.344 373.753C144.597 373.006 144.178 371.993 144.178 370.937V353.482C144.178 352.729 144.178 351.961 144.178 351.187C144.103 340.729 144.103 330.231 144.178 319.605V312.191" stroke="#592D3D" stroke-width="12" stroke-miterlimit="10"/>
<path d="M222.022 314.935C221.965 313.685 221.992 312.431 222.04 311.177C222.088 309.924 222.181 308.673 222.295 307.419C222.355 306.792 222.418 306.166 222.49 305.539C222.562 304.912 222.637 304.288 222.745 303.661C222.954 302.37 223.316 301.109 223.822 299.903C224.329 301.109 224.69 302.37 224.899 303.661C225.007 304.288 225.085 304.915 225.154 305.539C225.223 306.163 225.289 306.792 225.349 307.419C225.463 308.673 225.556 309.924 225.604 311.177C225.652 312.431 225.679 313.685 225.622 314.935H222.022Z" fill="#592D3D"/>
<path d="M205.204 306.672C205.27 303.838 208.87 302.638 210.67 304.438C210.963 304.736 211.193 305.09 211.349 305.477C211.505 305.865 211.583 306.28 211.579 306.698C211.575 307.116 211.488 307.529 211.324 307.913C211.16 308.298 210.922 308.646 210.624 308.938C210.325 309.231 209.972 309.462 209.584 309.617C209.196 309.773 208.781 309.851 208.363 309.847C207.945 309.843 207.532 309.756 207.148 309.592C206.763 309.428 206.415 309.19 206.122 308.892C205.83 308.601 205.598 308.255 205.441 307.874C205.283 307.493 205.203 307.085 205.204 306.672Z" fill="#592D3D"/>
<path d="M156.433 306.582C156.37 304.138 159.07 302.938 160.87 303.838C163.27 304.738 163.27 308.037 160.87 309.537C159.67 310.136 158.47 309.537 157.345 308.793C157.055 308.503 156.825 308.158 156.668 307.778C156.512 307.399 156.432 306.993 156.433 306.582Z" fill="#592D3D"/>
<path d="M184 303.469C184.215 304.034 184.366 304.622 184.45 305.221C184.539 305.8 184.588 306.386 184.597 306.972L184.687 310.478C184.714 311.645 184.75 312.815 184.762 313.984L184.813 317.485C184.882 322.154 184.879 326.83 184.897 331.503C184.915 336.176 184.951 340.849 184.897 345.522C184.87 347.858 184.807 350.194 184.738 352.531C184.708 353.698 184.651 354.867 184.537 356.034C184.435 357.213 184.258 358.384 184.006 359.54C183.754 358.384 183.577 357.213 183.475 356.034C183.361 354.867 183.304 353.698 183.274 352.531C183.205 350.194 183.142 347.858 183.115 345.522C183.055 340.849 183.115 336.176 183.115 331.503C183.115 326.83 183.115 322.16 183.169 317.488L183.22 313.978L183.319 310.475L183.418 306.972C183.429 306.386 183.479 305.8 183.568 305.221C183.647 304.622 183.792 304.035 184 303.469Z" fill="#F3AB98"/>
<path d="M161.566 318.834C162.011 318.623 162.482 318.472 162.967 318.385C163.43 318.298 163.9 318.247 164.371 318.235L167.176 318.136L172.786 318.013C176.524 317.956 180.259 317.941 184 317.932C187.741 317.923 191.479 317.884 195.217 317.932C197.086 317.959 198.955 318.022 200.827 318.091C201.76 318.124 202.696 318.181 203.629 318.292C204.576 318.397 205.514 318.575 206.434 318.825C205.515 319.077 204.577 319.255 203.629 319.356C202.696 319.47 201.76 319.527 200.827 319.557C198.955 319.626 197.086 319.686 195.217 319.713C191.479 319.77 187.741 319.713 184 319.713C180.259 319.713 176.521 319.713 172.78 319.668C170.911 319.65 169.042 319.59 167.176 319.518L164.371 319.416C163.901 319.404 163.432 319.353 162.97 319.266C162.485 319.185 162.013 319.04 161.566 318.834Z" fill="#F3AB98"/>
<path d="M166.723 328.246C167.077 328.077 167.456 327.965 167.845 327.913C168.205 327.862 168.568 327.847 168.931 327.868C169.648 327.898 170.365 327.916 171.082 327.931C172.516 327.964 173.95 327.976 175.384 327.982C178.273 327.982 181.111 328.006 184.012 327.919C186.913 327.832 189.79 327.79 192.676 327.802C194.119 327.802 195.562 327.841 197.002 327.874C197.727 327.884 198.451 327.931 199.171 328.015C199.911 328.097 200.642 328.25 201.352 328.474C200.658 328.746 199.938 328.947 199.204 329.074C198.489 329.203 197.766 329.289 197.041 329.332C195.595 329.437 194.149 329.527 192.706 329.578C189.814 329.686 186.925 329.674 184.042 329.713C182.599 329.713 181.159 329.779 179.698 329.743C178.237 329.707 176.791 329.704 175.342 329.65C173.893 329.596 172.438 329.476 170.992 329.326C170.266 329.245 169.546 329.155 168.823 329.056C168.458 329.011 168.099 328.927 167.752 328.804C167.38 328.678 167.032 328.489 166.723 328.246Z" fill="#F3AB98"/>
<path d="M165.679 338.89C166.035 338.681 166.422 338.529 166.825 338.44C167.201 338.353 167.585 338.304 167.971 338.293L170.26 338.197C171.787 338.143 173.317 338.098 174.844 338.074C177.898 338.03 180.952 338.029 184 338.029C187.048 338.029 190.108 337.979 193.162 338.029C194.689 338.056 196.216 338.119 197.743 338.188C198.509 338.214 199.273 338.28 200.032 338.386C200.814 338.494 201.583 338.675 202.33 338.929C201.586 339.178 200.819 339.356 200.041 339.46C199.281 339.569 198.516 339.636 197.749 339.661C196.222 339.73 194.695 339.793 193.168 339.82C190.114 339.88 187.057 339.838 184.003 339.82C180.949 339.802 177.895 339.802 174.841 339.745C173.314 339.715 171.784 339.661 170.257 339.598L167.968 339.487C167.582 339.475 167.198 339.425 166.822 339.337C166.42 339.25 166.034 339.099 165.679 338.89Z" fill="#F3AB98"/>
<path d="M237.34 325.838C237.403 314.707 236.977 304.822 235.021 297.228C232 289.622 226.567 285.087 217 285.087L223.837 325.433C223.837 325.433 230.593 328.504 237.34 325.838Z" fill="#F3AB98"/>
<path d="M239.923 322.67C239.581 322.953 239.208 323.197 238.813 323.399" stroke="#592D3D" stroke-width="12" stroke-miterlimit="10" stroke-linecap="square"/>
<path d="M131.833 296.904C129.784 304.573 129.433 314.638 129.511 325.996C135.481 328.558 144.637 325.352 144.637 325.352L149.836 285.689C140.575 285.68 135.055 289.849 131.833 296.904Z" fill="#F3AB98"/>
<path d="M218.128 281.56H201.865V281.59C201.865 282.94 201.721 284.286 201.433 285.606C201.293 286.247 201.119 286.881 200.911 287.504C200.247 289.365 199.228 291.079 197.911 292.552C197.491 293.024 197.04 293.468 196.561 293.881C189.01 299.339 177.01 299.639 169.717 293.707C168.931 293.02 168.217 292.257 167.584 291.427C166.27 289.703 165.34 287.718 164.854 285.606C164.712 284.953 164.605 284.293 164.533 283.629C164.458 282.952 164.421 282.271 164.422 281.59V281.56H148.159C147.103 281.56 146.09 281.98 145.344 282.727C144.597 283.474 144.178 284.487 144.178 285.543V370.925C144.176 371.449 144.278 371.968 144.478 372.453C144.677 372.937 144.97 373.377 145.34 373.748C145.709 374.12 146.149 374.414 146.633 374.615C147.116 374.816 147.635 374.92 148.159 374.92H219.841C220.897 374.92 221.91 374.5 222.656 373.753C223.403 373.006 223.822 371.993 223.822 370.937V287.522C223.822 283.857 222.055 281.56 218.128 281.56Z" fill="#85C5E5"/>
<path d="M217 281.56C236.062 281.56 239.02 298.355 239.17 321.501C233.59 324.986 224.497 321.894 224.497 321.894L217 281.56Z" fill="#85C5E5"/>
<path d="M223.822 303.499L217 314.935L220.414 353.926H223.897V322.238L229.081 323.105C227.38 301.46 223.822 303.499 223.822 303.499Z" fill="#67B7D6"/>
<path d="M149.836 281.56C131.302 281.56 127.087 297.696 126.781 319.848C132.481 325.805 144.181 321.222 144.181 321.222L149.836 281.56Z" fill="#85C5E5"/>
<path d="M144.169 303.499V321.234L138.976 322.526C140.677 301.496 144.169 303.499 144.169 303.499Z" fill="#67B7D6"/>
<path d="M217 281.56C237.223 281.56 240.535 298.442 240.67 321.684C232.81 325.412 224.497 321.894 224.497 321.894" stroke="#592D3D" stroke-width="12" stroke-miterlimit="10" stroke-linecap="square"/>
<path d="M149.836 281.56C129.799 281.56 125.812 297.966 125.608 320.766C131.8 325.199 144.166 321.234 144.166 321.234" stroke="#592D3D" stroke-width="12" stroke-miterlimit="10" stroke-linecap="square"/>
<path d="M148.159 374.92H183.145C150.4 374.92 152.872 305.583 144.178 305.583V370.925C144.176 371.449 144.278 371.968 144.478 372.452C144.677 372.937 144.97 373.377 145.34 373.748C145.709 374.119 146.149 374.414 146.633 374.615C147.116 374.816 147.635 374.92 148.159 374.92Z" fill="#67B7D6"/>
<path d="M142.378 312.191C142.321 311.09 142.345 309.99 142.393 308.892C142.441 307.794 142.534 306.687 142.651 305.593C142.711 305.041 142.771 304.492 142.846 303.94C142.921 303.388 142.993 302.839 143.101 302.287C143.314 301.145 143.676 300.036 144.178 298.988C144.681 300.036 145.042 301.145 145.252 302.287C145.363 302.839 145.441 303.388 145.51 303.94C145.579 304.492 145.645 305.041 145.705 305.593C145.819 306.693 145.909 307.794 145.96 308.892C146.011 309.99 146.035 311.093 145.978 312.191H142.378Z" fill="#592D3D"/>
<path d="M223.822 314.935V317.335C223.9 327.532 223.9 338.03 223.822 348.152C223.822 349.013 223.822 349.868 223.822 350.71V370.928C223.823 371.452 223.721 371.971 223.522 372.455C223.322 372.939 223.029 373.379 222.659 373.749C222.29 374.12 221.85 374.415 221.367 374.615C220.883 374.816 220.365 374.92 219.841 374.92H148.159C147.103 374.92 146.09 374.5 145.344 373.753C144.597 373.006 144.178 371.993 144.178 370.937V353.482C144.178 352.729 144.178 351.961 144.178 351.187C144.103 340.729 144.103 330.231 144.178 319.605V312.191" stroke="#592D3D" stroke-width="12" stroke-miterlimit="10"/>
<path d="M222.022 314.935C221.965 313.685 221.992 312.431 222.04 311.177C222.088 309.924 222.181 308.673 222.295 307.419C222.355 306.792 222.418 306.166 222.49 305.539C222.562 304.912 222.637 304.288 222.748 303.661C222.955 302.37 223.315 301.108 223.822 299.903C224.329 301.109 224.69 302.37 224.899 303.661C225.007 304.288 225.085 304.915 225.154 305.539C225.223 306.163 225.289 306.792 225.349 307.419C225.463 308.673 225.556 309.924 225.604 311.177C225.652 312.431 225.679 313.685 225.622 314.935H222.022Z" fill="#592D3D"/>
<path d="M148.159 281.59L218.128 281.56" stroke="#592D3D" stroke-width="12" stroke-miterlimit="10"/>
<path d="M201.865 281.59C201.866 282.94 201.721 284.286 201.433 285.606C201.293 286.247 201.119 286.881 200.911 287.504C200.247 289.365 199.229 291.079 197.911 292.552C197.491 293.024 197.04 293.468 196.561 293.881C189.01 299.339 177.01 299.639 169.717 293.707C168.931 293.02 168.217 292.257 167.584 291.427C166.271 289.703 165.34 287.718 164.854 285.606C164.712 284.953 164.605 284.293 164.533 283.629C164.458 282.952 164.421 282.271 164.422 281.59" stroke="#592D3D" stroke-width="12" stroke-miterlimit="10"/>
<path d="M185.02 302.455C183.205 302.82 181.348 302.931 179.503 302.785C177.641 302.654 175.805 302.275 174.043 301.658C172.271 301.05 170.602 300.176 169.093 299.066L168.535 298.643C168.352 298.499 168.175 298.343 167.998 298.187C167.642 297.884 167.308 297.555 166.999 297.204C166.383 296.512 165.842 295.757 165.385 294.951C166.027 295.595 166.702 296.204 167.407 296.778C167.581 296.922 167.758 297.063 167.932 297.198C168.106 297.333 168.301 297.444 168.484 297.57C168.667 297.695 168.85 297.821 169.039 297.938L169.612 298.286C171.143 299.193 172.761 299.942 174.442 300.524C176.127 301.113 177.858 301.559 179.617 301.858C181.406 302.151 183.21 302.35 185.02 302.455Z" fill="#592D3D"/>
<path d="M126.349 321.684C126.69 321.995 127.06 322.273 127.453 322.514" stroke="#592D3D" stroke-width="12" stroke-miterlimit="10" stroke-linecap="square"/>
<path d="M236.41 318.741C235.786 319.115 235.098 319.371 234.382 319.497C233.671 319.637 232.947 319.702 232.222 319.692C231.498 319.678 230.777 319.599 230.068 319.455C229.714 319.392 229.369 319.287 229.021 319.194C228.673 319.101 228.34 318.963 228.01 318.822C228.373 318.822 228.724 318.876 229.078 318.906L230.134 318.993C230.485 318.993 230.833 319.053 231.184 319.056C231.535 319.059 231.88 319.089 232.228 319.092C232.928 319.104 233.628 319.085 234.328 319.035C235.028 318.987 235.724 318.889 236.41 318.741Z" fill="#592D3D"/>
<path d="M204.064 329.281C204.064 326.623 200.734 324.104 195.631 322.541C196.81 317.341 196.285 313.205 193.978 311.879C193.44 311.522 192.797 311.357 192.154 311.411C189.754 311.45 186.961 313.016 183.985 315.796C181 313.031 177.7 311.396 175.813 311.444C174.865 311.471 174.502 311.6 173.965 311.912C171.664 313.235 171.151 317.365 172.336 322.55C167.236 324.119 163.936 326.632 163.936 329.281C163.936 331.929 167.266 334.457 172.369 336.02C171.19 341.221 171.715 345.357 174.022 346.682C174.583 346.998 175.218 347.156 175.861 347.141C178.111 347.141 181.054 345.537 184.033 342.756C187.009 345.522 189.955 347.108 192.205 347.108C192.851 347.122 193.489 346.964 194.053 346.649C196.351 345.324 196.867 341.194 195.679 336.011C200.752 334.448 204.064 331.929 204.064 329.281ZM192.148 313.238C192.471 313.228 192.791 313.301 193.078 313.451C194.191 314.089 194.674 316.519 194.299 319.641C194.209 320.409 194.062 321.219 193.882 322.04C192.172 321.626 190.436 321.326 188.686 321.141C187.644 319.704 186.508 318.338 185.284 317.053C187.948 314.596 190.447 313.241 192.148 313.238ZM176.752 333.468C177.136 334.121 177.529 334.759 177.931 335.381C176.77 335.21 175.648 334.997 174.577 334.736C174.877 333.681 175.255 332.592 175.681 331.506C176.017 332.16 176.368 332.814 176.752 333.468ZM174.553 323.825C175.624 323.573 176.752 323.351 177.922 323.18C177.523 323.81 177.121 324.455 176.746 325.118C176.371 325.781 176.017 326.425 175.681 327.079C175.251 326.014 174.875 324.928 174.553 323.825ZM176.638 329.305C177.145 328.21 177.718 327.112 178.333 326.041C178.948 324.971 179.623 323.891 180.304 322.919C181.522 322.811 182.758 322.754 184 322.754C185.242 322.754 186.469 322.811 187.681 322.91C188.359 323.882 189.022 324.923 189.661 326.017C190.3 327.112 190.861 328.177 191.362 329.272C190.846 330.369 190.282 331.464 189.667 332.535C189.052 333.606 188.377 334.685 187.696 335.66C186.478 335.765 185.242 335.822 184 335.822C182.758 335.822 181.531 335.765 180.319 335.666C179.641 334.694 178.978 333.657 178.339 332.559C177.7 331.461 177.154 330.399 176.638 329.305ZM191.248 333.444C191.623 332.79 191.974 332.127 192.31 331.473C192.74 332.539 193.117 333.626 193.438 334.73C192.367 334.991 191.239 335.213 190.069 335.384C190.471 334.751 190.87 334.106 191.248 333.444ZM191.248 325.094C190.873 324.44 190.471 323.801 190.069 323.18C191.233 323.35 192.351 323.565 193.423 323.825C193.123 324.881 192.745 325.969 192.319 327.055C191.974 326.401 191.623 325.748 191.239 325.094H191.248ZM186.25 320.979C185.512 320.949 184.75 320.922 184 320.922C183.25 320.922 182.47 320.94 181.726 320.979C182.428 320.067 183.179 319.194 183.976 318.363C184.778 319.196 185.537 320.069 186.25 320.979ZM174.871 313.481C175.16 313.326 175.486 313.253 175.813 313.268C177.505 313.268 180.013 314.617 182.683 317.08C181.465 318.361 180.337 319.724 179.305 321.159C177.553 321.34 175.815 321.641 174.103 322.058C173.914 321.243 173.776 320.448 173.677 319.689C173.293 316.564 173.767 314.134 174.871 313.49V313.481ZM172.81 334.244C172 333.989 171.232 333.711 170.521 333.411C167.623 332.175 165.751 330.555 165.751 329.272C165.751 327.988 167.623 326.359 170.521 325.133C171.223 324.833 171.991 324.56 172.786 324.308C173.286 326.007 173.9 327.67 174.625 329.287C173.909 330.899 173.303 332.559 172.81 334.253V334.244ZM175.846 345.315C175.525 345.32 175.207 345.245 174.922 345.096C173.809 344.457 173.326 342.027 173.701 338.905C173.791 338.134 173.938 337.328 174.118 336.506C175.828 336.921 177.564 337.222 179.314 337.406C180.355 338.844 181.491 340.211 182.716 341.497C180.049 343.968 177.547 345.324 175.846 345.324V345.315ZM184.015 340.189C183.213 339.355 182.454 338.481 181.741 337.571C182.479 337.604 183.241 337.628 183.991 337.628C184.741 337.628 185.521 337.613 186.265 337.571C185.563 338.487 184.812 339.364 184.015 340.198V340.189ZM193.129 345.063C192.84 345.217 192.514 345.291 192.187 345.276C190.495 345.276 187.987 343.926 185.317 341.464C186.535 340.182 187.663 338.82 188.695 337.385C190.448 337.203 192.186 336.903 193.897 336.485C194.081 337.27 194.223 338.063 194.323 338.863C194.707 341.997 194.233 344.424 193.129 345.072V345.063ZM197.473 333.411C196.768 333.711 196 333.98 195.205 334.235C194.705 332.535 194.09 330.871 193.366 329.254C194.078 327.645 194.679 325.989 195.166 324.299C195.976 324.554 196.744 324.83 197.464 325.133C200.362 326.368 202.234 327.988 202.234 329.272C202.234 330.555 200.368 332.193 197.473 333.42V333.411Z" fill="black" stroke="white" stroke-width="16"/>
<path d="M183.991 333.018C186.056 333.018 187.729 331.345 187.729 329.281C187.729 327.217 186.056 325.544 183.991 325.544C181.927 325.544 180.253 327.217 180.253 329.281C180.253 331.345 181.927 333.018 183.991 333.018Z" fill="black" stroke="white" stroke-width="24"/>
<path d="M204.064 329.281C204.064 326.623 200.734 324.104 195.631 322.541C196.81 317.341 196.285 313.205 193.978 311.879C193.44 311.522 192.797 311.357 192.154 311.411C189.754 311.45 186.961 313.016 183.985 315.796C181 313.031 177.7 311.396 175.813 311.444C174.865 311.471 174.502 311.6 173.965 311.912C171.664 313.235 171.151 317.365 172.336 322.55C167.236 324.119 163.936 326.632 163.936 329.281C163.936 331.929 167.266 334.457 172.369 336.02C171.19 341.221 171.715 345.357 174.022 346.682C174.583 346.998 175.218 347.156 175.861 347.141C178.111 347.141 181.054 345.537 184.033 342.756C187.009 345.522 189.955 347.108 192.205 347.108C192.851 347.122 193.489 346.964 194.053 346.649C196.351 345.324 196.867 341.194 195.679 336.011C200.752 334.448 204.064 331.929 204.064 329.281ZM192.148 313.238C192.471 313.228 192.791 313.301 193.078 313.451C194.191 314.089 194.674 316.519 194.299 319.641C194.209 320.409 194.062 321.219 193.882 322.04C192.172 321.626 190.436 321.326 188.686 321.141C187.644 319.704 186.508 318.338 185.284 317.053C187.948 314.596 190.447 313.241 192.148 313.238ZM176.752 333.468C177.136 334.121 177.529 334.759 177.931 335.381C176.77 335.21 175.648 334.997 174.577 334.736C174.877 333.681 175.255 332.592 175.681 331.506C176.017 332.16 176.368 332.814 176.752 333.468ZM174.553 323.825C175.624 323.573 176.752 323.351 177.922 323.18C177.523 323.81 177.121 324.455 176.746 325.118C176.371 325.781 176.017 326.425 175.681 327.079C175.251 326.014 174.875 324.928 174.553 323.825ZM176.638 329.305C177.145 328.21 177.718 327.112 178.333 326.041C178.948 324.971 179.623 323.891 180.304 322.919C181.522 322.811 182.758 322.754 184 322.754C185.242 322.754 186.469 322.811 187.681 322.91C188.359 323.882 189.022 324.923 189.661 326.017C190.3 327.112 190.861 328.177 191.362 329.272C190.846 330.369 190.282 331.464 189.667 332.535C189.052 333.606 188.377 334.685 187.696 335.66C186.478 335.765 185.242 335.822 184 335.822C182.758 335.822 181.531 335.765 180.319 335.666C179.641 334.694 178.978 333.657 178.339 332.559C177.7 331.461 177.154 330.399 176.638 329.305ZM191.248 333.444C191.623 332.79 191.974 332.127 192.31 331.473C192.74 332.539 193.117 333.626 193.438 334.73C192.367 334.991 191.239 335.213 190.069 335.384C190.471 334.751 190.87 334.106 191.248 333.444ZM191.248 325.094C190.873 324.44 190.471 323.801 190.069 323.18C191.233 323.35 192.351 323.565 193.423 323.825C193.123 324.881 192.745 325.969 192.319 327.055C191.974 326.401 191.623 325.748 191.239 325.094H191.248ZM186.25 320.979C185.512 320.949 184.75 320.922 184 320.922C183.25 320.922 182.47 320.94 181.726 320.979C182.428 320.067 183.179 319.194 183.976 318.363C184.778 319.196 185.537 320.069 186.25 320.979ZM174.871 313.481C175.16 313.326 175.486 313.253 175.813 313.268C177.505 313.268 180.013 314.617 182.683 317.08C181.465 318.361 180.337 319.724 179.305 321.159C177.553 321.34 175.815 321.641 174.103 322.058C173.914 321.243 173.776 320.448 173.677 319.689C173.293 316.564 173.767 314.134 174.871 313.49V313.481ZM172.81 334.244C172 333.989 171.232 333.711 170.521 333.411C167.623 332.175 165.751 330.555 165.751 329.272C165.751 327.988 167.623 326.359 170.521 325.133C171.223 324.833 171.991 324.56 172.786 324.308C173.286 326.007 173.9 327.67 174.625 329.287C173.909 330.899 173.303 332.559 172.81 334.253V334.244ZM175.846 345.315C175.525 345.32 175.207 345.245 174.922 345.096C173.809 344.457 173.326 342.027 173.701 338.905C173.791 338.134 173.938 337.328 174.118 336.506C175.828 336.921 177.564 337.222 179.314 337.406C180.355 338.844 181.491 340.211 182.716 341.497C180.049 343.968 177.547 345.324 175.846 345.324V345.315ZM184.015 340.189C183.213 339.355 182.454 338.481 181.741 337.571C182.479 337.604 183.241 337.628 183.991 337.628C184.741 337.628 185.521 337.613 186.265 337.571C185.563 338.487 184.812 339.364 184.015 340.198V340.189ZM193.129 345.063C192.84 345.217 192.514 345.291 192.187 345.276C190.495 345.276 187.987 343.926 185.317 341.464C186.535 340.182 187.663 338.82 188.695 337.385C190.448 337.203 192.186 336.903 193.897 336.485C194.081 337.27 194.223 338.063 194.323 338.863C194.707 341.997 194.233 344.424 193.129 345.072V345.063ZM197.473 333.411C196.768 333.711 196 333.98 195.205 334.235C194.705 332.535 194.09 330.871 193.366 329.254C194.078 327.645 194.679 325.989 195.166 324.299C195.976 324.554 196.744 324.83 197.464 325.133C200.362 326.368 202.234 327.988 202.234 329.272C202.234 330.555 200.368 332.193 197.473 333.42V333.411Z" fill="#61DAFB"/>
<path d="M183.991 333.018C186.056 333.018 187.729 331.345 187.729 329.281C187.729 327.217 186.056 325.544 183.991 325.544C181.927 325.544 180.253 327.217 180.253 329.281C180.253 331.345 181.927 333.018 183.991 333.018Z" fill="#61DAFB"/>
<path d="M122.947 225.74V221.862C122.479 219.323 122.679 216.706 123.529 214.268C123.809 213.473 124.162 212.705 124.582 211.974C125.587 209.361 128.287 207.262 130.987 206.362C135.187 205.162 140.287 205.762 143.587 209.061C147.787 213.56 147.187 220.159 147.322 225.743" stroke="#592D3D" stroke-width="12" stroke-miterlimit="10" stroke-linecap="round"/>
<path d="M220.993 225.857C220.291 217.873 221.491 206.776 231.832 205.711C232.642 205.638 233.458 205.638 234.268 205.711C236.708 205.923 239.041 206.815 241 208.285C246.4 212.784 245.2 219.982 245.185 225.869" stroke="#592D3D" stroke-width="12" stroke-miterlimit="10" stroke-linecap="round"/>
<path d="M166.942 240.512C166.942 234.843 201.058 235.695 201.058 240.512C201.058 245.035 199.261 249.372 196.062 252.571C192.863 255.769 188.524 257.565 184 257.565C179.476 257.565 175.137 255.769 171.938 252.571C168.739 249.372 166.942 245.035 166.942 240.512Z" fill="#592D3D"/>
<path d="M182.5 246.852C177.415 246.552 172.981 248.877 171.505 252.317C173.959 254.909 177.165 256.666 180.671 257.34C184.177 258.014 187.806 257.572 191.047 256.075C191.721 255.764 192.374 255.408 193 255.01C192.724 250.778 188.218 247.206 182.5 246.852Z" fill="#F28195"/>
<path d="M166.942 240.512C166.942 234.843 201.058 235.695 201.058 240.512C201.058 245.035 199.261 249.372 196.062 252.571C192.863 255.769 188.524 257.565 184 257.565C179.476 257.565 175.137 255.769 171.938 252.571C168.739 249.372 166.942 245.035 166.942 240.512Z" stroke="#592D3D" stroke-width="6" stroke-miterlimit="10"/>
<path d="M177.436 243.691C177.571 243.658 177.625 243.643 177.712 243.628L177.937 243.586C178.084 243.559 178.237 243.544 178.375 243.532C178.663 243.503 178.953 243.493 179.242 243.502C179.829 243.515 180.412 243.596 180.979 243.745C182.168 244.046 183.245 244.681 184.084 245.574C184.873 246.423 185.402 247.481 185.608 248.622C185.796 249.674 185.653 250.758 185.2 251.726C184.579 250.847 184.102 250.058 183.604 249.398C183.38 249.082 183.134 248.782 182.869 248.499C182.627 248.25 182.355 248.033 182.059 247.851C181.499 247.515 180.874 247.302 180.226 247.224C179.886 247.18 179.543 247.156 179.2 247.152C179.023 247.152 178.846 247.152 178.672 247.167L178.417 247.185H178.3C178.27 247.185 178.21 247.185 178.231 247.185L177.436 243.691Z" fill="#592D3D"/>
<path d="M214.267 192.137C217.58 191.292 220.936 190.627 224.32 190.142L223.522 190.247C227.476 189.725 231.484 189.572 235.447 190.103L234.649 189.995C235.63 190.133 236.611 190.295 237.595 190.421L236.797 190.313C239.783 190.722 242.738 191.335 245.641 192.146C247.141 192.563 248.971 191.627 249.331 190.046C249.527 189.279 249.418 188.466 249.026 187.778C248.634 187.09 247.991 186.58 247.231 186.357C243.827 185.425 240.358 184.745 236.854 184.324L237.652 184.432C234.343 183.844 230.975 183.648 227.62 183.847C224.283 184.066 220.966 184.522 217.693 185.211C216.007 185.55 214.333 185.94 212.665 186.351C211.141 186.726 210.079 188.529 210.565 190.04C210.788 190.8 211.298 191.443 211.986 191.835C212.674 192.226 213.488 192.336 214.255 192.14L214.267 192.137Z" fill="#592D3D"/>
<path d="M119.842 192.146C122.717 191.312 125.65 190.691 128.617 190.289L127.819 190.397C132.936 189.727 138.118 189.736 143.233 190.421L142.435 190.316C145.418 190.723 148.37 191.334 151.27 192.146C152.77 192.566 154.6 191.627 154.96 190.046C155.156 189.279 155.047 188.466 154.655 187.778C154.263 187.09 153.62 186.581 152.86 186.357C148.527 185.152 144.085 184.379 139.6 184.048C132.398 183.579 125.169 184.362 118.234 186.36C117.482 186.578 116.839 187.07 116.434 187.74C116.033 188.44 115.925 189.27 116.134 190.049C116.629 191.582 118.207 192.611 119.824 192.149L119.842 192.146Z" fill="#592D3D"/>
<path d="M181.432 115.371C189.299 115.371 195.676 108.995 195.676 101.13C195.676 93.2656 189.299 86.8899 181.432 86.8899C173.565 86.8899 167.188 93.2656 167.188 101.13C167.188 108.995 173.565 115.371 181.432 115.371Z" fill="#85C5E5"/>
<path d="M181.432 115.371C183.553 115.372 185.648 114.899 187.563 113.987C189.478 113.075 191.165 111.747 192.501 110.099C193.837 108.452 194.787 106.527 195.284 104.465C195.78 102.403 195.81 100.257 195.37 98.182C186.136 96.7513 176.56 97.5821 167.239 99.9815C167.209 100.359 167.188 100.74 167.188 101.127C167.188 102.998 167.556 104.85 168.271 106.578C168.987 108.306 170.036 109.876 171.359 111.199C172.682 112.521 174.252 113.571 175.98 114.286C177.709 115.002 179.561 115.371 181.432 115.371Z" fill="#67B7D6"/>
<path d="M181.432 115.371C189.299 115.371 195.676 108.995 195.676 101.13C195.676 93.2656 189.299 86.8899 181.432 86.8899C173.565 86.8899 167.188 93.2656 167.188 101.13C167.188 108.995 173.565 115.371 181.432 115.371Z" stroke="#592D3D" stroke-width="12" stroke-miterlimit="10"/>
<path d="M106.078 180.908C106.075 175.103 106.733 169.317 108.04 163.662C108.298 162.552 108.579 161.452 108.883 160.363C109.753 150.675 114.883 142.685 121.741 135.55C123.169 134.407 123.454 131.84 124.882 130.412C129.736 126.132 134.017 121.849 139.441 118.415C161.707 104.145 191.11 96.4396 214.804 109.567C219.655 112.135 225.079 113.562 229.075 116.987C236.785 123.55 242.206 131.258 249.916 137.535C256.765 143.234 257.908 152.376 260.338 160.351C260.644 161.438 260.925 162.538 261.181 163.65C262.488 169.305 263.147 175.091 263.143 180.896L106.078 180.908Z" fill="#85C5E5"/>
<path d="M108.04 163.662C106.733 169.317 106.075 175.103 106.078 180.908H130.978C130.51 156.716 124.3 136.513 155.8 111.886C133.204 120.461 112.615 139.293 108.04 163.662Z" fill="#67B7D6"/>
<path d="M111.454 150.312C110.07 153.505 109.202 156.898 108.883 160.363C108.579 161.45 108.298 162.55 108.04 163.662C106.733 169.317 106.075 175.103 106.078 180.908H166.093C178.833 179.922 191.63 179.922 204.37 180.908H263.143C263.147 175.103 262.488 169.317 261.181 163.662C260.923 162.552 260.642 161.452 260.338 160.363C259.3 156.953 258.493 153.333 257.38 149.865C208.813 131.9 159.7 132.281 111.454 150.312Z" fill="#67B7D6"/>
<path d="M106.078 180.908C106.075 175.103 106.733 169.317 108.04 163.662C108.298 162.552 108.579 161.452 108.883 160.363C109.753 150.675 114.883 142.685 121.741 135.55C123.169 134.407 123.454 131.84 124.882 130.412C129.736 126.132 134.017 121.849 139.441 118.415C161.707 104.145 191.11 96.4396 214.804 109.567C219.655 112.135 225.079 113.562 229.075 116.987C236.785 123.55 242.206 131.258 249.916 137.535C256.765 143.234 257.908 152.376 260.338 160.351C260.644 161.438 260.925 162.538 261.181 163.65C262.488 169.305 263.147 175.091 263.143 180.896L106.078 180.908Z" stroke="#592D3D" stroke-width="12" stroke-miterlimit="10"/>
<path d="M101.605 160.903C156.631 137.508 212.947 137.191 268.387 160.903C273.646 163.152 273.616 202.853 268.387 201.036C214.246 182.191 156.988 181.99 101.605 201.036C95.0169 203.3 95.6589 163.431 101.605 160.903Z" fill="#85C5E5"/>
<path d="M259.399 187.08C259.647 188.051 259.783 189.047 259.804 190.049C259.831 191.03 259.771 192.005 259.726 192.983L259.618 194.443C259.57 194.929 259.522 195.415 259.462 195.898C259.342 196.867 259.195 197.829 258.985 198.78L256.624 198.357C256.756 197.407 256.924 196.465 257.116 195.523L257.416 194.11L257.716 192.701C257.938 191.762 258.127 190.82 258.382 189.881C258.634 188.918 258.975 187.981 259.399 187.08Z" fill="#592D3D"/>
<path d="M258.973 156.716C259.441 158.594 259.804 160.496 260.062 162.414C260.191 163.371 260.296 164.331 260.389 165.29C260.482 166.25 260.536 167.216 260.587 168.179C260.665 170.104 260.698 172.03 260.605 173.952C260.522 175.88 260.276 177.797 259.87 179.684C259.57 177.767 259.369 175.875 259.174 173.985C258.979 172.096 258.811 170.221 258.559 168.353C258.442 167.417 258.31 166.487 258.169 165.557C258.028 164.628 257.869 163.701 257.713 162.777C257.392 160.927 257.023 159.091 256.636 157.255L258.973 156.716Z" fill="#592D3D"/>
<path d="M234.634 150.576C236.902 163.434 236.647 177.417 234.634 192.185" stroke="#592D3D" stroke-width="8" stroke-miterlimit="10"/>
<path d="M213.457 146.26C215.002 159.127 214.828 173.118 213.457 187.899" stroke="#592D3D" stroke-width="8" stroke-miterlimit="10"/>
<path d="M194.155 160.915C194.516 162.966 194.754 165.037 194.866 167.117C194.986 169.186 195.022 171.256 195.061 173.328V176.436C195.061 177.47 195.061 178.505 195.025 179.54C194.98 181.609 194.905 183.679 194.764 185.745L192.364 185.625C192.43 183.565 192.535 181.507 192.646 179.45L193.009 173.28C193.147 171.223 193.255 169.163 193.414 167.102C193.573 165.042 193.807 162.981 194.155 160.915Z" fill="#592D3D"/>
<path d="M194.779 143.942C194.841 144.575 194.869 145.211 194.863 145.846C194.863 146.164 194.848 146.482 194.839 146.8L194.8 147.757C194.749 148.393 194.704 149.032 194.596 149.67C194.486 150.339 194.276 150.987 193.972 151.593C193.613 151.015 193.34 150.387 193.162 149.73C192.991 149.107 192.883 148.483 192.769 147.856L192.622 146.92C192.583 146.605 192.538 146.293 192.505 145.981C192.434 145.355 192.399 144.725 192.4 144.095L194.779 143.942Z" fill="#592D3D"/>
<path d="M174.328 143.873C174.433 156.77 174.421 170.767 174.328 185.562" stroke="#592D3D" stroke-width="8" stroke-miterlimit="10"/>
<path d="M155.014 145.831C154.396 158.728 154.465 172.744 155.014 187.554" stroke="#592D3D" stroke-width="8" stroke-miterlimit="10"/>
<path d="M134.011 171.466C134.37 173.128 134.642 174.808 134.824 176.499C135.013 178.175 135.151 179.849 135.319 181.522L135.772 186.54C135.913 188.211 136.051 189.884 136.147 191.561L133.747 191.753C133.573 190.07 133.468 188.382 133.393 186.693C133.354 185.847 133.333 185.001 133.309 184.156L133.279 181.618C133.279 179.927 133.294 178.232 133.384 176.541C133.47 174.836 133.679 173.14 134.011 171.466Z" fill="#592D3D"/>
<path d="M136.144 150.03C136.069 151.125 135.952 152.214 135.829 153.302L135.631 154.937L135.415 156.572C135.253 157.663 135.13 158.755 134.935 159.85C134.747 160.963 134.466 162.059 134.095 163.125C133.782 162.034 133.581 160.915 133.495 159.784C133.405 158.668 133.399 157.558 133.381 156.443V154.775C133.399 154.217 133.414 153.662 133.441 153.107C133.501 151.995 133.588 150.885 133.741 149.781L136.144 150.03Z" fill="#592D3D"/>
<path d="M113.458 156.11C111.4 169.007 111.631 183.058 113.458 197.889" stroke="#592D3D" stroke-width="8" stroke-miterlimit="10"/>
<path d="M259.921 184.342C260.143 184.342 260.361 184.276 260.546 184.152C260.731 184.029 260.875 183.853 260.96 183.647C261.045 183.442 261.068 183.216 261.024 182.998C260.981 182.779 260.874 182.579 260.716 182.422C260.559 182.264 260.359 182.157 260.14 182.114C259.922 182.071 259.696 182.093 259.49 182.178C259.285 182.263 259.109 182.407 258.985 182.592C258.862 182.777 258.796 182.995 258.796 183.217C258.8 183.514 258.92 183.798 259.13 184.008C259.34 184.218 259.624 184.338 259.921 184.342Z" fill="#592D3D"/>
<path d="M261.484 156.389C264.484 169.237 264.139 183.211 261.484 197.97" stroke="#67B7D6" stroke-width="8" stroke-miterlimit="10"/>
<path d="M238.3 149.976C240.568 162.834 240.313 176.817 238.3 191.588" stroke="#67B7D6" stroke-width="8" stroke-miterlimit="10"/>
<path d="M217.114 145.612C218.659 158.479 218.485 172.471 217.114 187.251" stroke="#67B7D6" stroke-width="8" stroke-miterlimit="10"/>
<path d="M197.218 143.324C198.04 156.197 197.95 170.2 197.218 184.989" stroke="#67B7D6" stroke-width="8" stroke-miterlimit="10"/>
<path d="M177.94 143.126C178.042 156.008 178.033 170.02 177.94 184.816" stroke="#67B7D6" stroke-width="8" stroke-miterlimit="10"/>
<path d="M158.602 145.036C157.984 157.933 158.053 171.949 158.602 186.759" stroke="#67B7D6" stroke-width="8" stroke-miterlimit="10"/>
<path d="M138.523 149.076C137.185 161.973 137.323 176.007 138.523 190.829" stroke="#67B7D6" stroke-width="8" stroke-miterlimit="10"/>
<path d="M117.022 155.267C114.964 168.164 115.195 182.215 117.022 197.046" stroke="#67B7D6" stroke-width="8" stroke-miterlimit="10"/>
<path d="M101.605 160.903C156.631 137.508 212.947 137.191 268.387 160.903C273.646 163.152 273.616 202.853 268.387 201.036C214.246 182.191 156.988 181.99 101.605 201.036C95.0169 203.3 95.6589 163.431 101.605 160.903Z" stroke="#592D3D" stroke-width="12" stroke-miterlimit="10"/>
<path d="M162.028 139.095C165.851 138.294 169.719 137.721 173.611 137.379C174.586 137.295 175.558 137.211 176.533 137.145L179.458 136.977C180.436 136.935 181.411 136.917 182.389 136.887L185.32 136.848C189.22 136.848 193.135 137.037 197.02 137.4C200.911 137.747 204.778 138.328 208.6 139.14C204.7 139.053 200.8 138.903 196.936 138.801C193.072 138.699 189.184 138.654 185.311 138.645H182.407C181.438 138.645 180.469 138.681 179.5 138.678L176.596 138.72C175.627 138.753 174.658 138.768 173.686 138.78C169.816 138.879 165.934 139.017 162.028 139.095Z" fill="#592D3D"/>
<path d="M138.193 124.132C140.314 122.436 142.559 120.899 144.907 119.534C147.241 118.148 149.65 116.882 152.107 115.737C152.707 115.437 153.346 115.179 153.967 114.903C154.588 114.627 155.206 114.345 155.839 114.102C157.105 113.607 158.359 113.088 159.649 112.663C162.205 111.75 164.817 110.999 167.467 110.413C166.846 110.686 166.219 110.947 165.592 111.202C164.965 111.457 164.335 111.694 163.717 111.97C162.472 112.492 161.224 112.995 159.988 113.535L159.061 113.934C158.761 114.063 158.437 114.189 158.131 114.33L156.286 115.149C155.668 115.413 155.059 115.698 154.444 115.974C153.829 116.25 153.217 116.526 152.614 116.822L150.784 117.671C150.184 117.971 149.584 118.271 148.969 118.571C147.769 119.153 146.569 119.771 145.354 120.371C142.957 121.576 140.569 122.827 138.193 124.132Z" fill="white"/>
</g>
</svg>
