<svg width="220" height="220" viewBox="0 0 220 220" fill="none" xmlns="http://www.w3.org/2000/svg">
<path fill-rule="evenodd" clip-rule="evenodd" d="M109.834 0.0878784C129.716 1.16146 148.605 10.6903 163.33 23.8415C176.754 35.8306 179.086 54.9569 188.39 70.2494C197.866 85.8228 215.025 96.9585 218.637 114.746C222.479 133.665 217.884 153.694 208.812 170.81C199.548 188.288 185.483 204.142 167.079 212.02C149.282 219.638 129.226 212.229 109.834 213.177C89.2357 214.183 68.6862 224.404 49.1981 217.782C28.6983 210.817 7.59313 196.614 1.21508 176.27C-5.22943 155.715 16.0181 136.234 16.8941 114.746C17.7187 94.5201 -0.937438 75.02 6.11819 55.9986C13.1642 37.003 34.7688 27.6092 52.8266 17.8747C70.6053 8.29059 89.5787 -1.00583 109.834 0.0878784Z" fill="#2D7ACC"/>
</svg>
