<svg width="221" height="220" viewBox="0 0 221 220" fill="none" xmlns="http://www.w3.org/2000/svg">
<path fill-rule="evenodd" clip-rule="evenodd" d="M102.743 2.44157C125.3 6.04477 142.67 22.4432 161.954 35.5207C182.924 49.7427 214.586 56.1228 220.172 82.0797C225.822 108.34 198.354 128.416 187.13 152.522C178.131 171.848 177.69 197.142 160.988 209.186C144.427 221.129 122.678 212.631 102.743 213.376C81.8204 214.159 57.828 227.699 41.4744 213.657C25.0503 199.555 34.8256 170.518 27.9627 149.169C20.8885 127.162 0.718629 110.811 0.930365 87.5301C1.17667 60.4483 9.29042 30.9427 29.1892 14.3126C49.2488 -2.45183 77.6045 -1.57414 102.743 2.44157Z" fill="#2D7ACC"/>
</svg>
